<?xml version="1.0" encoding="utf-8"?>
<!-- Generator: Adobe Illustrator 18.0.0, SVG Export Plug-In . SVG Version: 6.00 Build 0)  -->
<!DOCTYPE svg PUBLIC "-//W3C//DTD SVG 1.1//EN" "http://www.w3.org/Graphics/SVG/1.1/DTD/svg11.dtd">
<svg version="1.1" id="Layer_1" xmlns="http://www.w3.org/2000/svg" xmlns:xlink="http://www.w3.org/1999/xlink" x="0px" y="0px"
	 viewBox="0 0 300 150" enable-background="new 0 0 300 150" xml:space="preserve">
<path fill="#FFC114" d="M38.9,35.6c0-5.8,1.1-10.9,3.2-15.2c2-4.1,4.9-7.4,8.7-9.9c3.5-2.4,7.7-4.1,12.6-5.3C68.2,4,73.7,3.4,80,3.4
	c1.6,0,2.8,0,3.6,0c4.3,0.2,6.6,0.2,7,0.2l11.2,0.4c2.4,0,4.7-0.1,6.9-0.4c2.2-0.3,4.3-0.8,6.3-1.7l-5.8,8.7c-6.3,0-11.5-0.3-15.6-1
	l-12.6-2c-0.8,2.4-2.2,6.8-4,13.4c-1.6,6-3.3,13.1-5.2,21.2h19.7l-3.6,4.6c-1.6-0.8-3.2-1.3-5-1.5l-4.1-0.5H71
	c-1.3,4.7-2.2,9.9-2.8,15.5c-0.3,2.8-0.5,5.4-0.7,7.7c-0.2,2.3-0.2,4.4-0.2,6.1c0,3,0.2,5.5,0.5,7.5c0.3,2,0.9,3.9,1.9,6l-3.9,0.9
	c-0.4-1.7-0.7-3.6-0.9-5.6l-0.3-5.3c0-4.5,0.4-9.6,1.3-15.2c0.9-5.6,2.1-11.9,3.8-18.9c3.2-13.5,6.5-25.6,9.8-36.3l-4.5-1
	c-0.9-0.1-1.6-0.2-2-0.3C72.5,6,71.8,6,70.8,6c-8.3,0-14.9,1.9-19.7,5.7c-4.8,3.8-7.2,9-7.2,15.6c0,0.9,0.1,1.8,0.3,2.8
	c0.2,1,0.5,1.9,0.8,2.8L38.9,35.6z M75.8,9C71.9,22,68,37.1,64,54.5c-2,8.9-3.5,16.3-4.5,22.3c-1.1,6.9-1.7,12.4-1.7,16.7v2.1
	l0.2,1.7l-7.6,3.4c0-3.2,0.3-6.8,0.8-10.5c0.5-3.8,1.3-8.4,2.4-13.8c0.8-3.9,2-9.2,3.5-16c1.9-8.5,4-17,6.2-25.7
	c2.2-8.7,4.5-17.2,6.9-25.7H75.8z"/>
<path fill="#FFC114" d="M152.7,3.4H163l-16.9,72.3c-3.1,11.8-7.3,20.9-12.5,27.5c-2.6,3.3-5.5,5.8-8.7,7.5
	c-3.3,1.7-6.9,2.5-10.8,2.5c-2.3,0-4.4-0.3-6.3-0.8c-1.9-0.5-3.5-1.2-4.9-2.2c-2.6-1.7-4.4-4-5.4-6.7l7-5.9l-0.1,0.8l-0.1,1
	c0,3,0.9,5.7,2.7,8c1,1.2,2.2,2.1,3.8,2.8c1.6,0.7,3.4,1,5.5,1c4.6,0,8.8-2.9,12.7-8.6c1.9-2.8,3.7-6.3,5.5-10.5
	c1.8-4.2,3.5-9,5.1-14.5l4.1-16.8l4.4-19.9c0.8-3.6,1.5-6.9,2.1-10c0.9-4.3,1.6-7.5,2.1-9.7l3.8-16h-2.4
	c-2.3,14.4-5.9,29.6-10.8,45.4c-4.9,15.8-10.8,24.4-17.6,25.7c-3.8,0-6.2-2.6-7.3-7.9c-0.5-2.5-0.9-5.6-1.2-9.3
	c-0.3-3.7-0.4-7.7-0.4-11.9c0-4.2-0.1-8.6-0.4-13.1c-0.3-4.5-0.5-9.2-0.8-14.2c0-2.8-0.2-5.3-0.7-7.3c-0.5-2-1.2-3.6-2-4.6
	c-0.7-1-1.5-1.6-2.4-1.8C109.3,6.1,108,6,106.3,6l0.6-2.6l13.2-0.8l1.5,22.5c0,2.9,0.1,6.1,0.3,9.8c0.2,3.7,0.4,7.5,0.7,11.5
	c0.2,4,0.4,7.3,0.4,9.9c0,5,0.4,8.6,1.1,10.8c0.7,1.9,1.9,2.8,3.6,2.8c2.1,0,4.2-1.6,6.3-4.7c2.2-3.1,4.3-7.7,6.5-13.7
	C145,39.6,149,23.5,152.7,3.4"/>
<path fill="#FFC114" d="M207.5,3.4L207.3,5c-0.1,0.5-0.2,1.2-0.2,1.9c0,1.6,0.1,3.1,0.2,4.7c0.2,1.5,0.5,3.4,0.9,5.4
	c0.9,4.2,1.8,8.5,2.9,12.9l3.6,15.2c1.2,5.2,2.3,11,3.3,17.3c4.9-10.5,9.8-19.6,14.7-27.3c4.7-7.4,9.9-15,15.8-22.7l4-5.3l2.9-3.7
	l3.6-0.8c-3.3,7.9-6.1,17.9-8.5,30c-1.2,6.3-2.2,12.4-2.8,18.3c-0.6,5.9-0.9,11.8-0.9,17.7c0,7.2,0.7,11.7,2.1,13.6
	c0.7,1,1.7,1.6,2.8,2c1.2,0.4,2.7,0.6,4.5,0.6l-0.5,2.5l-15.3,1.2c-0.4-1.4-0.7-3.2-1-5.6c-0.1-1.4-0.2-2.6-0.2-3.4
	c0-0.8-0.1-2.2-0.1-4c0-5.6,0.2-11.1,0.7-16.6c0.5-5.5,1.2-11.1,2.2-16.8c1.9-11.1,4-20.3,6.4-27.4l-0.2-0.5
	c-5.1,6.8-11.2,16.9-18.3,30.6c-7,13.3-12.2,26-15.9,38.1l-5.4,4.5l0.4-7.5c0-6-0.5-12.3-1.6-19c-1.1-6.7-2.3-12.9-3.7-18.7
	c-0.7-3.1-1.3-5.7-1.8-7.9c-0.7-2.8-1.3-5.1-1.7-6.6c-1-3.9-1.5-6.4-1.5-7.4h-0.2c-2.7,9.1-5.5,20.1-8.4,33.2
	c-1.5,7.2-2.6,13-3.3,17.5c-0.8,5.3-1.2,9.7-1.2,13.1l0.2,1.9l0.1,1.5l-6,1.2c0.8-8.3,2.9-19.5,6.3-33.8c1.7-7.1,3.6-14.4,5.7-22
	c2.1-7.6,4.6-15.5,7.2-23.7h3.8c0.3,3.5,0.8,7,1.5,10.6c0.7,3.6,1.5,7.1,2.4,10.5l2.8,10.8c0.9,3.7,1.7,7.2,2.3,10.6
	c0.2,1.1,0.5,2.6,0.8,4.4c0.3,1.8,0.6,3.6,0.8,5.4c0.3,1.8,0.5,3.5,0.6,5.2c0.2,1.7,0.2,3.1,0.2,4.3l0.3,0l0.8-2.4l1.2-3.2
	c-0.6-3.7-1.1-7-1.6-9.9c-0.5-2.9-1.2-6-1.9-9.3c-0.5-2.1-0.9-4.2-1.4-6.4c-0.8-3.4-1.5-6.7-2.3-9.7l-2.9-13.1
	c-0.4-1.8-0.6-3.6-0.8-5.3c-0.2-1.7-0.3-3.2-0.3-4.7h-5.5c-5.6,0-10.5,0.8-14.7,2.3c-4.2,1.5-7.4,3.7-9.5,6.4
	c-1.5,2.1-2.5,4.1-3.2,6.3c-0.5,2.1-0.8,4.1-0.8,6.1v1c0,0.3,0.1,0.8,0.2,1.7l0.3,2.5l-6,2.7c1.3-12.8,5.6-21.5,12.9-26
	c3.5-2.1,7.6-3.7,12.3-4.8C196.5,4,201.7,3.4,207.5,3.4"/>
<path fill="none" stroke="#221F1F" stroke-width="0.5" d="M70.3,9c-2.4,8.5-4.7,17.1-6.9,25.7c-2.2,8.7-4.2,17.2-6.2,25.7
	c-1.5,6.8-2.7,12.1-3.5,16c-1.1,5.4-1.9,10-2.4,13.8c-0.5,3.8-0.8,7.3-0.8,10.5l7.6-3.4l-0.2-1.7v-2.1c0-4.2,0.6-9.8,1.7-16.7
	c1-6,2.5-13.4,4.5-22.3C68,37.1,71.9,22,75.8,9H70.3z M44.9,32.9c-0.3-0.9-0.6-1.8-0.7-2.8c-0.2-1-0.3-1.9-0.3-2.8
	c0-6.6,2.4-11.8,7.2-15.6C55.9,7.9,62.5,6,70.8,6c1,0,1.7,0,2.1,0.1c0.4,0,1.1,0.1,2,0.3l4.5,1c-3.3,10.7-6.6,22.8-9.8,36.3
	c-1.7,7-3,13.3-3.8,18.9c-0.9,5.6-1.3,10.7-1.3,15.2l0.3,5.3c0.2,2,0.5,3.9,0.9,5.6l3.9-0.9c-0.9-2-1.5-4-1.9-6
	c-0.3-2-0.5-4.4-0.5-7.5c0-1.8,0.1-3.8,0.2-6.2c0.2-2.3,0.4-4.9,0.7-7.7c0.6-5.7,1.6-10.8,2.8-15.5h7.8l4.1,0.4
	c1.7,0.3,3.4,0.8,5,1.5l3.6-4.6H71.7c1.9-8.1,3.6-15.2,5.2-21.2c1.8-6.5,3.2-11,4-13.4l12.6,2c4.1,0.7,9.3,1,15.6,1l5.8-8.7
	c-1.9,0.9-4,1.4-6.3,1.7c-2.2,0.3-4.5,0.4-6.9,0.4L90.6,3.7c-0.4,0-2.7-0.1-7-0.2c-0.9,0-2.1-0.1-3.6-0.1c-6.2,0-11.8,0.6-16.7,1.7
	c-4.9,1.2-9.1,2.9-12.6,5.3c-3.8,2.5-6.7,5.8-8.7,9.9c-2.1,4.3-3.2,9.4-3.2,15.2L44.9,32.9z"/>
<path fill="none" stroke="#221F1F" stroke-width="0.5" d="M140.6,51.5c-2.2,6-4.4,10.6-6.5,13.7c-2.2,3.1-4.3,4.7-6.3,4.7
	c-1.7,0-2.9-0.9-3.6-2.8c-0.8-2.1-1.1-5.7-1.1-10.8c0-2.6-0.1-5.9-0.4-9.9c-0.2-4-0.5-7.8-0.7-11.5c-0.2-3.7-0.3-6.9-0.3-9.8
	l-1.5-22.5l-13.2,0.8L106.3,6c1.8,0,3.1,0.1,3.9,0.3c0.9,0.2,1.7,0.8,2.4,1.8c0.8,1,1.5,2.5,2,4.6c0.5,2,0.7,4.5,0.7,7.3
	c0.3,5,0.6,9.7,0.8,14.2c0.3,4.5,0.4,8.8,0.4,13.1c0,4.2,0.1,8.2,0.4,11.9c0.3,3.7,0.7,6.8,1.2,9.3c1.1,5.2,3.5,7.9,7.3,7.9
	c6.8-1.4,12.7-9.9,17.6-25.7c4.9-15.8,8.5-30.9,10.8-45.4h2.4l-3.8,16c-0.5,2.2-1.2,5.4-2.1,9.7c-0.7,3.1-1.4,6.4-2.1,10L143.8,61
	l-4.1,16.8c-1.6,5.5-3.3,10.3-5.1,14.5c-1.8,4.2-3.6,7.7-5.5,10.5c-3.8,5.7-8,8.6-12.7,8.6c-2.1,0-3.9-0.3-5.5-1
	c-1.6-0.7-2.9-1.6-3.8-2.8c-1.8-2.4-2.7-5-2.7-8l0.1-1l0.1-0.8l-7,5.9c1.1,2.7,2.9,4.9,5.4,6.7c1.4,1,3,1.7,4.9,2.2
	c1.9,0.5,4,0.8,6.3,0.8c4,0,7.6-0.8,10.8-2.5c3.3-1.7,6.2-4.2,8.7-7.5c5.2-6.6,9.3-15.7,12.5-27.5L163,3.4h-10.3
	C149,23.5,145,39.6,140.6,51.5z"/>
<path fill="none" stroke="#221F1F" stroke-width="0.5" d="M191.8,5c-4.7,1-8.8,2.6-12.3,4.8c-7.3,4.5-11.6,13.2-12.9,26l6-2.7
	l-0.3-2.5c-0.1-0.9-0.2-1.4-0.2-1.7v-1c0-2,0.3-4,0.8-6.1c0.7-2.1,1.7-4.2,3.2-6.3c2.2-2.8,5.3-4.9,9.5-6.4
	c4.2-1.5,9.1-2.3,14.7-2.3h5.5c0,1.4,0.1,3,0.3,4.7c0.2,1.7,0.5,3.4,0.8,5.3l2.9,13.1c0.8,3.1,1.5,6.3,2.3,9.7
	c0.5,2.1,0.9,4.3,1.4,6.4c0.7,3.3,1.4,6.4,1.9,9.3c0.5,2.9,1.1,6.2,1.6,9.9l-1.2,3.2l-0.8,2.4l-0.3,0c0-1.2-0.1-2.6-0.2-4.3
	c-0.1-1.7-0.4-3.4-0.6-5.2c-0.2-1.8-0.5-3.6-0.8-5.4c-0.3-1.8-0.6-3.3-0.8-4.4c-0.6-3.3-1.3-6.9-2.3-10.6l-2.8-10.8
	c-0.9-3.4-1.7-6.9-2.4-10.5c-0.7-3.6-1.2-7.1-1.5-10.6h-3.8c-2.7,8.2-5.1,16.1-7.2,23.7c-2.1,7.6-4.1,14.9-5.7,22
	c-3.4,14.2-5.5,25.5-6.3,33.8l6-1.2l-0.1-1.5l-0.2-1.9c0-3.4,0.4-7.8,1.2-13.1c0.7-4.5,1.8-10.3,3.3-17.5
	c2.9-13.1,5.6-24.2,8.4-33.2h0.2c0,1,0.5,3.5,1.5,7.4c0.4,1.6,1,3.8,1.7,6.6c0.5,2.2,1.1,4.9,1.8,7.9c1.4,5.8,2.6,12,3.7,18.7
	c1.1,6.7,1.6,13,1.6,19l-0.4,7.5l5.4-4.5c3.6-12.1,8.9-24.8,15.9-38.1c7.1-13.6,13.2-23.8,18.3-30.6l0.2,0.5
	c-2.4,7.1-4.5,16.3-6.4,27.4c-1,5.7-1.7,11.3-2.2,16.8c-0.5,5.5-0.7,11-0.7,16.6c0,1.8,0,3.1,0.1,4c0,0.9,0.1,2,0.2,3.4
	c0.3,2.4,0.6,4.3,1,5.6l15.3-1.2l0.5-2.5c-1.8,0-3.3-0.2-4.5-0.6c-1.2-0.4-2.1-1-2.9-2c-1.4-1.9-2.1-6.5-2.1-13.6
	c0-6,0.3-11.9,0.9-17.7c0.6-5.9,1.5-11.9,2.8-18.3c2.4-12.1,5.2-22.1,8.5-30l-3.6,0.8l-2.9,3.7l-4,5.3c-5.9,7.7-11.2,15.3-15.8,22.7
	c-4.9,7.7-9.7,16.9-14.7,27.3c-1-6.3-2.1-12.1-3.3-17.3l-3.6-15.2c-1.1-4.4-2-8.7-2.9-12.9c-0.4-2.1-0.7-3.9-0.9-5.5
	c-0.2-1.5-0.2-3.1-0.2-4.7c0-0.7,0.1-1.4,0.2-1.9l0.2-1.6C201.7,3.4,196.5,4,191.8,5z"/>
<polygon fill="#FFFFFF" points="48.3,146.2 48.3,123.1 40.3,123.1 40.3,119.4 60.9,119.4 60.9,123.1 52.9,123.1 52.9,146.2 "/>
<path fill="#FFFFFF" d="M67.1,146.2v-26.8h8.3c1.7,0,3,0.3,3.9,0.8c0.9,0.5,1.6,1.3,2.1,2.3c0.5,1,0.8,2.2,0.8,3.5
	c0,1.6-0.4,3-1.1,4.4c-0.8,1.4-1.8,2.5-3.2,3.2l7.3,12.5h-5.6l-5.5-10.9h-2.5v10.9H67.1z M71.4,131.6h1.1c1.9,0,3.2-0.5,3.9-1.5
	c0.7-1,1.1-2.1,1.1-3.4c0-1.1-0.3-2-0.9-2.6c-0.6-0.6-1.8-1-3.6-1h-1.6V131.6z"/>
<path fill="#FFFFFF" d="M88.9,146.2l8.7-26.8h4.6l8.7,26.8h-4.7l-2.3-7.2h-9.2l-2.3,7.2H88.9z M95.7,135.5h6.9l-3.4-10.7L95.7,135.5
	z"/>
<polygon fill="#FFFFFF" points="117,146.2 117,119.4 121.1,119.4 131.4,137.7 131.4,119.4 135.1,119.4 135.1,146.2 130.9,146.2 
	120.8,127.9 120.8,146.2 "/>
<path fill="#FFFFFF" d="M142.5,146v-4.6c1.7,0.9,3,1.4,3.9,1.6c0.9,0.2,1.6,0.3,2.4,0.3c1.3,0,2.3-0.3,2.9-1c0.6-0.7,1-1.5,1-2.5
	c0-0.7-0.2-1.4-0.5-2c-0.4-0.6-1.2-1.4-2.6-2.3l-1.5-1c-2.1-1.4-3.6-2.8-4.3-4c-0.8-1.2-1.2-2.6-1.2-4.2c0-2,0.6-3.7,1.9-5.2
	c1.3-1.4,3.1-2.2,5.5-2.2c1.8,0,3.8,0.3,6,0.9v4.3c-2.3-1-4.1-1.5-5.5-1.5c-1.1,0-2,0.3-2.6,0.9c-0.6,0.6-0.9,1.3-0.9,2.1
	c0,0.6,0.2,1.2,0.5,1.8c0.3,0.5,1.2,1.3,2.6,2.2l1.6,1.1c2.5,1.7,4,3.1,4.7,4.3c0.7,1.2,1,2.6,1,4.1c0,2.2-0.7,4.1-2.1,5.6
	c-1.4,1.6-3.6,2.3-6.6,2.3C146.9,146.9,144.9,146.6,142.5,146"/>
<path fill="#FFFFFF" d="M164.3,146.2v-26.8h7.6c2.2,0,3.8,0.3,4.7,0.8c0.9,0.6,1.6,1.4,2,2.4c0.5,1,0.7,2.3,0.7,3.9
	c0,3-0.8,5.3-2.3,6.8c-1.6,1.6-3.7,2.4-6.3,2.4h-1.9v10.5H164.3z M168.9,132h0.9c1.7,0,2.9-0.5,3.7-1.5c0.8-1,1.2-2.1,1.2-3.5
	c0-0.7-0.1-1.4-0.4-2c-0.3-0.6-0.6-1.1-1.2-1.4c-0.5-0.3-1.4-0.5-2.5-0.5h-1.7V132z"/>
<path fill="#FFFFFF" d="M196.1,146.9c-2.3,0-4.3-0.6-6-1.7c-1.7-1.2-3-2.8-3.9-5c-0.9-2.2-1.3-4.6-1.3-7.4c0-2.7,0.4-5.2,1.3-7.3
	c0.9-2.2,2.2-3.8,3.9-5c1.7-1.2,3.7-1.7,6-1.7c2.3,0,4.3,0.6,6,1.7c1.7,1.2,3,2.8,3.9,5c0.9,2.2,1.3,4.6,1.3,7.3
	c0,2.7-0.4,5.2-1.3,7.4c-0.9,2.2-2.2,3.8-3.9,5C200.5,146.3,198.4,146.9,196.1,146.9 M196.1,143.2c2.1,0,3.7-1,4.8-3.2
	c1-2.1,1.6-4.5,1.6-7.2c0-2.7-0.5-5.1-1.6-7.2c-1.1-2.1-2.6-3.1-4.8-3.1c-2.1,0-3.7,1-4.8,3.1c-1.1,2.1-1.6,4.5-1.6,7.2
	c0,2.7,0.5,5.1,1.6,7.2C192.4,142.1,194,143.2,196.1,143.2"/>
<path fill="#FFFFFF" d="M214.6,146.2v-26.8h8.3c1.7,0,3,0.3,3.9,0.8c0.9,0.5,1.6,1.3,2.1,2.3c0.5,1,0.8,2.2,0.8,3.5
	c0,1.6-0.4,3-1.1,4.4c-0.7,1.4-1.8,2.5-3.2,3.2l7.3,12.5H227l-5.5-10.9H219v10.9H214.6z M219,131.6h1.1c1.9,0,3.2-0.5,3.9-1.5
	c0.7-1,1.1-2.1,1.1-3.4c0-1.1-0.3-2-0.9-2.6c-0.6-0.6-1.8-1-3.6-1H219V131.6z"/>
<polygon fill="#FFFFFF" points="244.4,146.2 244.4,123.1 236.5,123.1 236.5,119.4 257,119.4 257,123.1 249.1,123.1 249.1,146.2 "/>
</svg>
