<?xml version="1.0" encoding="utf-8"?>
<!-- Generator: Adobe Illustrator 18.0.0, SVG Export Plug-In . SVG Version: 6.00 Build 0)  -->
<!DOCTYPE svg PUBLIC "-//W3C//DTD SVG 1.1//EN" "http://www.w3.org/Graphics/SVG/1.1/DTD/svg11.dtd">
<svg version="1.1" id="Layer_1" xmlns="http://www.w3.org/2000/svg" xmlns:xlink="http://www.w3.org/1999/xlink" x="0px" y="0px"
	 viewBox="0 0 75 50" enable-background="new 0 0 75 50" xml:space="preserve">
<path fill="#FFC114" d="M2.3,13.1c0-1.8,0.3-3.4,1-4.7c0.6-1.3,1.6-2.3,2.8-3.1c1.1-0.7,2.5-1.3,4-1.6c1.6-0.4,3.3-0.5,5.3-0.5
	c0.5,0,0.9,0,1.2,0c1.4,0.1,2.1,0.1,2.2,0.1l3.6,0.1c0.8,0,1.5,0,2.2-0.1c0.7-0.1,1.4-0.3,2-0.5l-1.9,2.7c-2,0-3.7-0.1-5-0.3l-4-0.6
	c-0.3,0.7-0.7,2.1-1.3,4.1c-0.5,1.9-1.1,4-1.7,6.5h6.3l-1.1,1.4c-0.5-0.2-1-0.4-1.6-0.5L15,15.9h-2.5c-0.4,1.4-0.7,3-0.9,4.8
	c-0.1,0.9-0.2,1.7-0.2,2.4c-0.1,0.7-0.1,1.3-0.1,1.9c0,0.9,0,1.7,0.2,2.3c0.1,0.6,0.3,1.2,0.6,1.8l-1.3,0.3
	c-0.1-0.5-0.2-1.1-0.3-1.7l-0.1-1.6c0-1.4,0.1-3,0.4-4.7c0.3-1.7,0.7-3.7,1.2-5.8c1-4.2,2.1-7.9,3.1-11.2L13.8,4
	C13.5,4,13.3,4,13.2,4c-0.1,0-0.4,0-0.7,0c-2.7,0-4.8,0.6-6.3,1.7c-1.5,1.2-2.3,2.8-2.3,4.8c0,0.3,0,0.6,0.1,0.9
	C4,11.7,4.1,12,4.2,12.2L2.3,13.1z M14.1,4.9c-1.2,4-2.5,8.7-3.8,14c-0.6,2.7-1.1,5-1.4,6.9c-0.4,2.1-0.5,3.8-0.5,5.1v0.6l0.1,0.5
	l-2.4,1c0-1,0.1-2.1,0.3-3.3c0.2-1.2,0.4-2.6,0.8-4.3c0.3-1.2,0.6-2.8,1.1-4.9c0.6-2.6,1.3-5.2,2-7.9c0.7-2.7,1.4-5.3,2.2-7.9H14.1z
	"/>
<path fill="#FFC114" d="M38.7,3.1H42l-5.4,22.3c-1,3.6-2.3,6.5-4,8.5c-0.8,1-1.7,1.8-2.8,2.3c-1,0.5-2.2,0.8-3.5,0.8
	c-0.7,0-1.4-0.1-2-0.2c-0.6-0.2-1.1-0.4-1.6-0.7c-0.8-0.5-1.4-1.2-1.7-2.1l2.2-1.8l0,0.2l0,0.3c0,0.9,0.3,1.8,0.9,2.5
	c0.3,0.4,0.7,0.6,1.2,0.9c0.5,0.2,1.1,0.3,1.8,0.3c1.5,0,2.8-0.9,4-2.7c0.6-0.9,1.2-1.9,1.8-3.2c0.6-1.3,1.1-2.8,1.6-4.5l1.3-5.2
	l1.4-6.1c0.2-1.1,0.5-2.1,0.7-3.1c0.3-1.3,0.5-2.3,0.7-3l1.2-4.9H39c-0.7,4.5-1.9,9.1-3.4,14c-1.6,4.9-3.4,7.5-5.6,7.9
	c-1.2,0-2-0.8-2.3-2.4c-0.2-0.8-0.3-1.7-0.4-2.9c-0.1-1.1-0.1-2.4-0.1-3.7c0-1.3,0-2.7-0.1-4c-0.1-1.4-0.2-2.8-0.3-4.4
	c0-0.9-0.1-1.6-0.2-2.3c-0.2-0.6-0.4-1.1-0.6-1.4c-0.2-0.3-0.5-0.5-0.8-0.6c-0.3-0.1-0.7-0.1-1.3-0.1L24,3.1l4.2-0.2l0.5,6.9
	c0,0.9,0,1.9,0.1,3c0.1,1.1,0.1,2.3,0.2,3.5c0.1,1.2,0.1,2.2,0.1,3c0,1.6,0.1,2.7,0.4,3.3c0.2,0.6,0.6,0.9,1.1,0.9
	c0.7,0,1.3-0.5,2-1.4c0.7-1,1.4-2.4,2.1-4.2C36.2,14.3,37.5,9.3,38.7,3.1"/>
<path fill="#FFC114" d="M56.2,3.1l-0.1,0.5c0,0.2-0.1,0.4-0.1,0.6c0,0.5,0,1,0.1,1.4c0.1,0.5,0.1,1,0.3,1.7c0.3,1.3,0.6,2.6,0.9,4
	l1.2,4.7c0.4,1.6,0.7,3.4,1.1,5.4c1.6-3.2,3.1-6,4.7-8.4c1.5-2.3,3.2-4.6,5.1-7l1.3-1.6l0.9-1.2l1.2-0.2c-1.1,2.4-2,5.5-2.7,9.3
	c-0.4,2-0.7,3.8-0.9,5.6c-0.2,1.8-0.3,3.6-0.3,5.5c0,2.2,0.2,3.6,0.7,4.2c0.2,0.3,0.5,0.5,0.9,0.6c0.4,0.1,0.9,0.2,1.4,0.2L71.7,29
	l-4.9,0.4c-0.1-0.4-0.2-1-0.3-1.7c0-0.4-0.1-0.8-0.1-1.1c0-0.3,0-0.7,0-1.2c0-1.7,0.1-3.4,0.2-5.1c0.2-1.7,0.4-3.4,0.7-5.2
	c0.6-3.4,1.3-6.2,2-8.5l-0.1-0.2c-1.6,2.1-3.6,5.2-5.8,9.4c-2.2,4.1-3.9,8-5.1,11.8L56.7,29l0.1-2.3c0-1.9-0.2-3.8-0.5-5.9
	c-0.3-2.1-0.7-4-1.2-5.8c-0.2-0.9-0.4-1.8-0.6-2.5c-0.2-0.9-0.4-1.6-0.5-2c-0.3-1.2-0.5-2-0.5-2.3h-0.1c-0.9,2.8-1.8,6.2-2.7,10.3
	c-0.5,2.2-0.8,4-1.1,5.4c-0.3,1.6-0.4,3-0.4,4l0,0.6l0,0.5l-1.9,0.4c0.3-2.6,0.9-6,2-10.4c0.5-2.2,1.2-4.5,1.8-6.8
	c0.7-2.3,1.5-4.8,2.3-7.3h1.2c0.1,1.1,0.2,2.2,0.5,3.3c0.2,1.1,0.5,2.2,0.8,3.2l0.9,3.3c0.3,1.1,0.5,2.2,0.7,3.3
	c0.1,0.4,0.2,0.8,0.3,1.4c0.1,0.6,0.2,1.1,0.3,1.7c0.1,0.6,0.1,1.1,0.2,1.6c0,0.5,0.1,1,0.1,1.3l0.1,0l0.3-0.7l0.4-1
	c-0.2-1.1-0.4-2.2-0.5-3.1c-0.2-0.9-0.4-1.9-0.6-2.9c-0.1-0.6-0.3-1.3-0.4-2c-0.2-1.1-0.5-2.1-0.7-3l-0.9-4
	c-0.1-0.6-0.2-1.1-0.3-1.6c-0.1-0.5-0.1-1-0.1-1.4h-1.8c-1.8,0-3.4,0.2-4.7,0.7c-1.3,0.5-2.4,1.1-3,2c-0.5,0.6-0.8,1.3-1,1.9
	c-0.2,0.6-0.3,1.3-0.3,1.9V11c0,0.1,0,0.3,0.1,0.5l0.1,0.8l-1.9,0.8c0.4-4,1.8-6.6,4.1-8c1.1-0.7,2.4-1.1,3.9-1.5
	C52.7,3.3,54.3,3.1,56.2,3.1"/>
<path fill="none" stroke="#221F1F" stroke-width="0.5" d="M12.3,4.9c-0.8,2.6-1.5,5.3-2.2,7.9c-0.7,2.7-1.4,5.3-2,7.9
	c-0.5,2.1-0.9,3.7-1.1,4.9c-0.3,1.7-0.6,3.1-0.8,4.3C6.1,31.1,6,32.2,6,33.2l2.4-1l-0.1-0.5v-0.6c0-1.3,0.2-3,0.5-5.1
	c0.3-1.9,0.8-4.1,1.4-6.9c1.3-5.4,2.5-10,3.8-14H12.3z M4.2,12.2C4.1,12,4,11.7,4,11.4c-0.1-0.3-0.1-0.6-0.1-0.9
	c0-2,0.8-3.6,2.3-4.8c1.5-1.2,3.6-1.7,6.3-1.7c0.3,0,0.5,0,0.7,0c0.1,0,0.4,0,0.6,0.1l1.4,0.3c-1.1,3.3-2.1,7-3.1,11.2
	c-0.5,2.1-1,4.1-1.2,5.8c-0.3,1.7-0.4,3.3-0.4,4.7l0.1,1.6c0.1,0.6,0.2,1.2,0.3,1.7l1.3-0.3c-0.3-0.6-0.5-1.2-0.6-1.8
	c-0.1-0.6-0.2-1.4-0.2-2.3c0-0.6,0-1.2,0.1-1.9c0.1-0.7,0.1-1.5,0.2-2.4c0.2-1.7,0.5-3.3,0.9-4.8H15l1.3,0.1
	c0.6,0.1,1.1,0.2,1.6,0.5l1.1-1.4h-6.3c0.6-2.5,1.2-4.7,1.7-6.5c0.6-2,1-3.4,1.3-4.1l4,0.6c1.3,0.2,3,0.3,5,0.3l1.9-2.7
	c-0.6,0.3-1.3,0.4-2,0.5c-0.7,0.1-1.4,0.1-2.2,0.1l-3.6-0.1c-0.1,0-0.9,0-2.2-0.1c-0.3,0-0.7,0-1.2,0c-2,0-3.8,0.2-5.3,0.5
	C8.5,4,7.2,4.6,6.1,5.3C4.9,6.1,3.9,7.1,3.3,8.4c-0.7,1.3-1,2.9-1,4.7L4.2,12.2z"/>
<path fill="none" stroke="#221F1F" stroke-width="0.5" d="M34.8,18c-0.7,1.9-1.4,3.3-2.1,4.2c-0.7,1-1.4,1.4-2,1.4
	c-0.6,0-0.9-0.3-1.1-0.9c-0.2-0.7-0.4-1.8-0.4-3.3c0-0.8,0-1.8-0.1-3c-0.1-1.2-0.1-2.4-0.2-3.5c-0.1-1.1-0.1-2.1-0.1-3l-0.5-6.9
	L24,3.1l-0.2,0.8c0.6,0,1,0,1.3,0.1c0.3,0.1,0.5,0.3,0.8,0.6c0.3,0.3,0.5,0.8,0.6,1.4c0.2,0.6,0.2,1.4,0.2,2.3
	c0.1,1.5,0.2,3,0.3,4.4c0.1,1.4,0.1,2.7,0.1,4c0,1.3,0,2.5,0.1,3.7c0.1,1.1,0.2,2.1,0.4,2.9c0.3,1.6,1.1,2.4,2.3,2.4
	c2.2-0.4,4.1-3.1,5.6-7.9c1.6-4.9,2.7-9.5,3.4-14h0.8l-1.2,4.9c-0.2,0.7-0.4,1.7-0.7,3c-0.2,0.9-0.4,2-0.7,3.1l-1.4,6.1l-1.3,5.2
	c-0.5,1.7-1.1,3.2-1.6,4.5c-0.6,1.3-1.2,2.4-1.8,3.2c-1.2,1.8-2.6,2.7-4,2.7c-0.7,0-1.3-0.1-1.8-0.3c-0.5-0.2-0.9-0.5-1.2-0.9
	c-0.6-0.7-0.9-1.6-0.9-2.5l0-0.3l0-0.2L21,34c0.3,0.8,0.9,1.5,1.7,2.1c0.4,0.3,1,0.5,1.6,0.7c0.6,0.2,1.3,0.2,2,0.2
	c1.3,0,2.4-0.3,3.5-0.8c1-0.5,2-1.3,2.8-2.3c1.7-2,3-4.9,4-8.5L42,3.1h-3.3C37.5,9.3,36.2,14.3,34.8,18z"/>
<path fill="none" stroke="#221F1F" stroke-width="0.5" d="M51.2,3.6c-1.5,0.3-2.8,0.8-3.9,1.5c-2.3,1.4-3.7,4.1-4.1,8l1.9-0.8
	l-0.1-0.8c0-0.3-0.1-0.4-0.1-0.5v-0.3c0-0.6,0.1-1.2,0.3-1.9c0.2-0.7,0.6-1.3,1-1.9c0.7-0.8,1.7-1.5,3-2c1.3-0.5,2.9-0.7,4.7-0.7
	h1.8c0,0.4,0,0.9,0.1,1.4c0.1,0.5,0.2,1.1,0.3,1.6l0.9,4c0.2,0.9,0.5,1.9,0.7,3c0.1,0.7,0.3,1.3,0.4,2c0.2,1,0.4,2,0.6,2.9
	c0.2,0.9,0.3,1.9,0.5,3.1l-0.4,1l-0.3,0.7l-0.1,0c0-0.4,0-0.8-0.1-1.3c0-0.5-0.1-1-0.2-1.6c-0.1-0.6-0.2-1.1-0.3-1.7
	c-0.1-0.6-0.2-1-0.3-1.4c-0.2-1-0.4-2.1-0.7-3.3l-0.9-3.3c-0.3-1.1-0.5-2.1-0.8-3.2c-0.2-1.1-0.4-2.2-0.5-3.3h-1.2
	c-0.9,2.5-1.6,5-2.3,7.3c-0.7,2.3-1.3,4.6-1.8,6.8c-1.1,4.4-1.8,7.9-2,10.4l1.9-0.4l0-0.5l0-0.6c0-1.1,0.1-2.4,0.4-4
	c0.2-1.4,0.6-3.2,1.1-5.4c0.9-4,1.8-7.5,2.7-10.3h0.1c0,0.3,0.2,1.1,0.5,2.3c0.1,0.5,0.3,1.2,0.5,2c0.2,0.7,0.4,1.5,0.6,2.5
	c0.4,1.8,0.8,3.7,1.2,5.8c0.3,2.1,0.5,4,0.5,5.9L56.7,29l1.7-1.4c1.2-3.7,2.8-7.6,5.1-11.8c2.3-4.2,4.2-7.4,5.8-9.4l0.1,0.2
	c-0.8,2.2-1.4,5-2,8.5c-0.3,1.8-0.5,3.5-0.7,5.2c-0.2,1.7-0.2,3.4-0.2,5.1c0,0.6,0,1,0,1.2c0,0.3,0,0.6,0.1,1.1
	c0.1,0.7,0.2,1.3,0.3,1.7l4.9-0.4l0.2-0.8c-0.6,0-1.1-0.1-1.4-0.2c-0.4-0.1-0.7-0.3-0.9-0.6c-0.5-0.6-0.7-2-0.7-4.2
	c0-1.8,0.1-3.7,0.3-5.5c0.2-1.8,0.5-3.7,0.9-5.6c0.8-3.7,1.7-6.8,2.7-9.3l-1.2,0.2l-0.9,1.2l-1.3,1.6c-1.9,2.4-3.6,4.7-5.1,7
	c-1.6,2.4-3.1,5.2-4.7,8.4c-0.3-2-0.7-3.7-1.1-5.3l-1.2-4.7c-0.3-1.4-0.6-2.7-0.9-4c-0.1-0.6-0.2-1.2-0.3-1.7
	c-0.1-0.5-0.1-1-0.1-1.4c0-0.2,0-0.4,0.1-0.6l0.1-0.5C54.3,3.1,52.7,3.3,51.2,3.6z"/>
<polygon fill="#FFFFFF" points="5.3,47.2 5.3,40.1 2.7,40.1 2.7,38.9 9.3,38.9 9.3,40.1 6.8,40.1 6.8,47.2 "/>
<path fill="#FFFFFF" d="M11.3,47.2v-8.3h2.7c0.5,0,1,0.1,1.2,0.2c0.3,0.2,0.5,0.4,0.7,0.7c0.2,0.3,0.2,0.7,0.2,1.1
	c0,0.5-0.1,0.9-0.4,1.4c-0.2,0.4-0.6,0.8-1,1l2.3,3.9h-1.8l-1.8-3.4h-0.8v3.4H11.3z M12.7,42.7H13c0.6,0,1-0.2,1.3-0.5
	c0.2-0.3,0.3-0.7,0.3-1c0-0.3-0.1-0.6-0.3-0.8c-0.2-0.2-0.6-0.3-1.2-0.3h-0.5V42.7z"/>
<path fill="#FFFFFF" d="M18.3,47.2l2.8-8.3h1.5l2.8,8.3h-1.5L23,45h-2.9l-0.7,2.2H18.3z M20.5,43.9h2.2l-1.1-3.3L20.5,43.9z"/>
<polygon fill="#FFFFFF" points="27.3,47.2 27.3,38.9 28.6,38.9 31.8,44.6 31.8,38.9 33,38.9 33,47.2 31.7,47.2 28.5,41.5 28.5,47.2 
	"/>
<path fill="#FFFFFF" d="M35.4,47.1v-1.4c0.6,0.3,1,0.4,1.2,0.5c0.3,0.1,0.5,0.1,0.8,0.1c0.4,0,0.7-0.1,0.9-0.3
	c0.2-0.2,0.3-0.5,0.3-0.8c0-0.2-0.1-0.4-0.2-0.6c-0.1-0.2-0.4-0.4-0.8-0.7l-0.5-0.3c-0.7-0.4-1.1-0.9-1.4-1.2
	c-0.2-0.4-0.4-0.8-0.4-1.3c0-0.6,0.2-1.2,0.6-1.6c0.4-0.4,1-0.7,1.8-0.7c0.6,0,1.2,0.1,1.9,0.3v1.3c-0.7-0.3-1.3-0.5-1.7-0.5
	c-0.4,0-0.6,0.1-0.8,0.3c-0.2,0.2-0.3,0.4-0.3,0.7c0,0.2,0.1,0.4,0.2,0.5c0.1,0.2,0.4,0.4,0.8,0.7l0.5,0.3c0.8,0.5,1.3,1,1.5,1.3
	c0.2,0.4,0.3,0.8,0.3,1.3c0,0.7-0.2,1.3-0.7,1.7c-0.4,0.5-1.1,0.7-2.1,0.7C36.8,47.4,36.2,47.3,35.4,47.1"/>
<path fill="#FFFFFF" d="M42.4,47.2v-8.3h2.4c0.7,0,1.2,0.1,1.5,0.3c0.3,0.2,0.5,0.4,0.7,0.7c0.1,0.3,0.2,0.7,0.2,1.2
	c0,0.9-0.3,1.6-0.7,2.1c-0.5,0.5-1.2,0.7-2,0.7h-0.6v3.2H42.4z M43.8,42.8h0.3c0.5,0,0.9-0.2,1.2-0.5c0.3-0.3,0.4-0.7,0.4-1.1
	c0-0.2,0-0.4-0.1-0.6c-0.1-0.2-0.2-0.3-0.4-0.4c-0.2-0.1-0.4-0.2-0.8-0.2h-0.6V42.8z"/>
<path fill="#FFFFFF" d="M52.6,47.4c-0.7,0-1.4-0.2-1.9-0.5c-0.5-0.4-1-0.9-1.2-1.5c-0.3-0.7-0.4-1.4-0.4-2.3c0-0.8,0.1-1.6,0.4-2.3
	c0.3-0.7,0.7-1.2,1.3-1.5c0.6-0.4,1.2-0.5,1.9-0.5c0.7,0,1.4,0.2,1.9,0.5c0.6,0.4,1,0.9,1.3,1.5c0.3,0.7,0.4,1.4,0.4,2.3
	c0,0.8-0.1,1.6-0.4,2.3c-0.3,0.7-0.7,1.2-1.2,1.5C53.9,47.2,53.3,47.4,52.6,47.4 M52.6,46.3c0.7,0,1.2-0.3,1.5-1
	c0.3-0.6,0.5-1.4,0.5-2.2c0-0.8-0.2-1.6-0.5-2.2c-0.3-0.6-0.8-1-1.5-1c-0.7,0-1.2,0.3-1.5,1c-0.3,0.6-0.5,1.4-0.5,2.2
	c0,0.8,0.2,1.6,0.5,2.2C51.4,45.9,51.9,46.3,52.6,46.3"/>
<path fill="#FFFFFF" d="M58.5,47.2v-8.3h2.7c0.5,0,1,0.1,1.2,0.2c0.3,0.2,0.5,0.4,0.7,0.7c0.2,0.3,0.2,0.7,0.2,1.1
	c0,0.5-0.1,0.9-0.4,1.4c-0.2,0.4-0.6,0.8-1,1l2.3,3.9h-1.8l-1.8-3.4h-0.8v3.4H58.5z M59.9,42.7h0.3c0.6,0,1-0.2,1.3-0.5
	c0.2-0.3,0.3-0.7,0.3-1c0-0.3-0.1-0.6-0.3-0.8c-0.2-0.2-0.6-0.3-1.2-0.3h-0.5V42.7z"/>
<polygon fill="#FFFFFF" points="68,47.2 68,40.1 65.4,40.1 65.4,38.9 72,38.9 72,40.1 69.5,40.1 69.5,47.2 "/>
</svg>
